<svg width="388" height="163" viewBox="0 0 388 163" fill="none" xmlns="http://www.w3.org/2000/svg">
<path d="M149.375 67.625C152.292 67.625 155.125 68.125 157.875 69.125C160.708 70.125 163.417 71.5833 166 73.5C166.417 73.9167 166.875 74.3333 167.375 74.75C167.792 74.3333 168.25 73.9167 168.75 73.5C171.333 71.5833 174 70.125 176.75 69.125C179.583 68.125 182.417 67.625 185.25 67.625C188.167 67.625 191 68.125 193.75 69.125C196.583 70.125 199.25 71.625 201.75 73.625C204.333 75.5417 206.583 78.125 208.5 81.375C210.5 84.625 211.5 88.5 211.5 93V138.125C211 143.125 208.25 145.833 203.25 146.25C200.917 146.25 198.875 145.5 197.125 144C195.458 142.417 194.625 140.458 194.625 138.125V94C194.625 92 194.25 90.3333 193.5 89C192.75 87.5833 191.917 86.5 191 85.75C190.083 84.9167 189.125 84.3333 188.125 84C187.125 83.5833 186.125 83.375 185.125 83.375C184.125 83.375 183.125 83.5833 182.125 84C181.208 84.3333 180.292 84.9167 179.375 85.75C178.458 86.5 177.625 87.5833 176.875 89C176.125 90.3333 175.708 92 175.625 94V138.125C175.125 143.125 172.375 145.833 167.375 146.25C165.042 146.25 163 145.5 161.25 144C159.583 142.417 158.75 140.458 158.75 138.125V94C158.75 92 158.375 90.3333 157.625 89C156.875 87.5833 156.042 86.5 155.125 85.75C154.208 84.9167 153.25 84.3333 152.25 84C151.25 83.5833 150.25 83.375 149.25 83.375C148.25 83.375 147.25 83.5833 146.25 84C145.333 84.3333 144.417 84.9167 143.5 85.75C142.583 86.5 141.75 87.5833 141 89C140.25 90.3333 139.833 92 139.75 94V138.125C139.333 143.125 136.625 145.833 131.625 146.25C129.292 146.25 127.25 145.5 125.5 144C123.833 142.417 123 140.458 123 138.125V93C123.167 88.5 124.208 84.625 126.125 81.375C128.042 78.125 130.292 75.5417 132.875 73.625C135.458 71.625 138.125 70.125 140.875 69.125C143.708 68.125 146.542 67.625 149.375 67.625ZM297.125 138.125V108C297.125 105.917 296.042 104.833 293.875 104.75H250.125C248.542 104.833 247.167 105.542 246 106.875C244.833 108.125 243.958 109.625 243.375 111.375C242.875 113.042 242.625 114.75 242.625 116.5C242.625 118.167 242.875 119.875 243.375 121.625C243.958 123.292 244.833 124.792 246 126.125C247.167 127.375 248.542 128 250.125 128H282.125C284.458 128 286.417 128.833 288 130.5C289.667 132.083 290.5 134.042 290.5 136.375C290.5 138.708 289.667 140.667 288 142.25C286.417 143.917 284.458 144.75 282.125 144.75H250.625C244.792 144.667 239.958 143.042 236.125 139.875C232.375 136.625 229.667 133 228 129C226.417 124.917 225.625 120.708 225.625 116.375C225.625 112.208 226.458 108.125 228.125 104.125C229.792 100.042 232.5 96.4167 236.25 93.25C240 90 245.542 88.25 252.875 88H305.375C307.708 88 309.708 88.7917 311.375 90.375C313.042 91.875 313.917 93.7917 314 96.125V138.125C314 140.458 313.125 142.417 311.375 144C309.708 145.5 307.708 146.25 305.375 146.25C300.375 145.833 297.625 143.125 297.125 138.125ZM338.75 86.75C341 86.8333 342.917 87.6667 344.5 89.25C346.083 90.75 346.917 92.625 347 94.875V138.125C346.5 143.125 343.75 145.833 338.75 146.25C336.417 146.25 334.375 145.5 332.625 144C330.958 142.417 330.125 140.458 330.125 138.125V94.875C330.208 92.5417 331.083 90.625 332.75 89.125C334.417 87.5417 336.417 86.75 338.75 86.75ZM328.25 70.5C328.25 68.1667 329.25 66.1667 331.25 64.5C333.25 62.8333 335.667 62 338.5 62C341.333 62 343.75 62.8333 345.75 64.5C347.75 66.1667 348.75 68.1667 348.75 70.5C348.75 72.9167 347.75 74.9583 345.75 76.625C343.75 78.2917 341.333 79.125 338.5 79.125C335.667 79.125 333.25 78.2917 331.25 76.625C329.25 74.9583 328.25 72.9167 328.25 70.5ZM370.875 69C373.125 69.0833 375.042 69.9167 376.625 71.5C378.208 73 379.042 74.875 379.125 77.125V138.375C378.625 143.375 375.875 146.083 370.875 146.5C368.542 146.5 366.5 145.75 364.75 144.25C363.083 142.667 362.25 140.708 362.25 138.375V77.125C362.333 74.7917 363.208 72.875 364.875 71.375C366.542 69.7917 368.542 69 370.875 69Z" fill="#EA4235"/>
<line x1="7.5" x2="7.5" y2="148" stroke="#4286F5" stroke-width="15"/>
<line x1="106.5" y1="111.007" x2="106.5" y2="37.0001" stroke="#34A84D" stroke-width="15"/>
<line x1="58.5" y1="125.005" x2="58.5" y2="22" stroke="#FABD03" stroke-width="15"/>
</svg>
